<mxfile host="app.diagrams.net" modified="2023-08-14T05:26:20.467Z" agent="Mozilla/5.0 (Macintosh; Intel Mac OS X 10_15_7) AppleWebKit/537.36 (KHTML, like Gecko) Chrome/115.0.0.0 Safari/537.36" etag="DwRWvxTD5EdbSrn7P6M8" version="21.6.8" type="github">
  <diagram name="Page-1" id="thd2gP7QPJdDt4dVLzzo">
    <mxGraphModel dx="2215" dy="738" grid="1" gridSize="10" guides="1" tooltips="1" connect="1" arrows="1" fold="1" page="1" pageScale="1" pageWidth="850" pageHeight="1100" math="0" shadow="0">
      <root>
        <mxCell id="0" />
        <mxCell id="1" parent="0" />
        <mxCell id="IYe9hOyiI9uOS7aUslrK-1" value="" style="rounded=0;whiteSpace=wrap;html=1;" parent="1" vertex="1">
          <mxGeometry x="150" y="260" width="840" height="720" as="geometry" />
        </mxCell>
        <mxCell id="IYe9hOyiI9uOS7aUslrK-2" value="VPC" style="text;html=1;strokeColor=none;fillColor=none;align=center;verticalAlign=middle;whiteSpace=wrap;rounded=0;" parent="1" vertex="1">
          <mxGeometry x="150" y="230" width="60" height="30" as="geometry" />
        </mxCell>
        <mxCell id="IYe9hOyiI9uOS7aUslrK-3" value="" style="rounded=0;whiteSpace=wrap;html=1;" parent="1" vertex="1">
          <mxGeometry x="180" y="430" width="780" height="200" as="geometry" />
        </mxCell>
        <mxCell id="IYe9hOyiI9uOS7aUslrK-4" value="" style="rounded=0;whiteSpace=wrap;html=1;" parent="1" vertex="1">
          <mxGeometry x="180" y="730" width="780" height="200" as="geometry" />
        </mxCell>
        <mxCell id="IYe9hOyiI9uOS7aUslrK-5" value="Public subnet" style="text;html=1;strokeColor=none;fillColor=none;align=center;verticalAlign=middle;whiteSpace=wrap;rounded=0;" parent="1" vertex="1">
          <mxGeometry x="150" y="400" width="130" height="30" as="geometry" />
        </mxCell>
        <mxCell id="IYe9hOyiI9uOS7aUslrK-6" value="Private subnet" style="text;html=1;strokeColor=none;fillColor=none;align=center;verticalAlign=middle;whiteSpace=wrap;rounded=0;" parent="1" vertex="1">
          <mxGeometry x="150" y="700" width="130" height="30" as="geometry" />
        </mxCell>
        <mxCell id="IYe9hOyiI9uOS7aUslrK-7" value="Server&lt;br&gt;IP: 50.60.4.10&amp;nbsp;" style="rounded=0;whiteSpace=wrap;html=1;" parent="1" vertex="1">
          <mxGeometry x="450" y="60" width="120" height="60" as="geometry" />
        </mxCell>
        <mxCell id="IYe9hOyiI9uOS7aUslrK-8" value="NAT Instance" style="rounded=0;whiteSpace=wrap;html=1;" parent="1" vertex="1">
          <mxGeometry x="450" y="500" width="120" height="60" as="geometry" />
        </mxCell>
        <mxCell id="IYe9hOyiI9uOS7aUslrK-9" value="Security Group (NATInstance-SG" style="text;html=1;strokeColor=none;fillColor=none;align=center;verticalAlign=middle;whiteSpace=wrap;rounded=0;" parent="1" vertex="1">
          <mxGeometry x="300" y="450" width="260" height="30" as="geometry" />
        </mxCell>
        <mxCell id="IYe9hOyiI9uOS7aUslrK-11" value="" style="edgeStyle=orthogonalEdgeStyle;rounded=0;orthogonalLoop=1;jettySize=auto;html=1;" parent="1" source="IYe9hOyiI9uOS7aUslrK-10" target="IYe9hOyiI9uOS7aUslrK-8" edge="1">
          <mxGeometry relative="1" as="geometry" />
        </mxCell>
        <mxCell id="IYe9hOyiI9uOS7aUslrK-10" value="EIP&lt;br&gt;12.34.56.78" style="rounded=0;whiteSpace=wrap;html=1;" parent="1" vertex="1">
          <mxGeometry x="290" y="515" width="130" height="30" as="geometry" />
        </mxCell>
        <mxCell id="IYe9hOyiI9uOS7aUslrK-12" value="Private EC2 Insance 1" style="rounded=0;whiteSpace=wrap;html=1;" parent="1" vertex="1">
          <mxGeometry x="270" y="800" width="130" height="60" as="geometry" />
        </mxCell>
        <mxCell id="IYe9hOyiI9uOS7aUslrK-13" value="Private EC2 Insance 2" style="rounded=0;whiteSpace=wrap;html=1;" parent="1" vertex="1">
          <mxGeometry x="500" y="800" width="130" height="60" as="geometry" />
        </mxCell>
        <mxCell id="IYe9hOyiI9uOS7aUslrK-14" value="Route Table&amp;nbsp;" style="rounded=0;whiteSpace=wrap;html=1;" parent="1" vertex="1">
          <mxGeometry x="396.5" y="700" width="100" height="45" as="geometry" />
        </mxCell>
        <mxCell id="IYe9hOyiI9uOS7aUslrK-15" value="Edit the route table from private subnet to public subnet to be allowed to send traffic from the EC2 instances between the two subnets to the NAT instance" style="text;html=1;strokeColor=none;fillColor=none;align=center;verticalAlign=middle;whiteSpace=wrap;rounded=0;" parent="1" vertex="1">
          <mxGeometry x="480" y="660" width="270" height="50" as="geometry" />
        </mxCell>
        <mxCell id="IYe9hOyiI9uOS7aUslrK-16" value="1. network package get rewritten by the NAT instance and the source ip has changed&amp;nbsp;&lt;br&gt;2. That&#39;s why the Source/Destination Check must be disabled on EC2 setting&lt;br&gt;" style="text;html=1;strokeColor=none;fillColor=none;align=center;verticalAlign=middle;whiteSpace=wrap;rounded=0;" parent="1" vertex="1">
          <mxGeometry x="590" y="470" width="260" height="120" as="geometry" />
        </mxCell>
        <mxCell id="IYe9hOyiI9uOS7aUslrK-17" value="" style="endArrow=classic;html=1;rounded=0;entryX=0.75;entryY=1;entryDx=0;entryDy=0;exitX=0.5;exitY=0;exitDx=0;exitDy=0;" parent="1" source="IYe9hOyiI9uOS7aUslrK-13" target="IYe9hOyiI9uOS7aUslrK-14" edge="1">
          <mxGeometry width="50" height="50" relative="1" as="geometry">
            <mxPoint x="670" y="830" as="sourcePoint" />
            <mxPoint x="720" y="780" as="targetPoint" />
          </mxGeometry>
        </mxCell>
        <mxCell id="IYe9hOyiI9uOS7aUslrK-18" value="Dest: 50.60.4.10" style="text;html=1;strokeColor=none;fillColor=none;align=center;verticalAlign=middle;whiteSpace=wrap;rounded=0;" parent="1" vertex="1">
          <mxGeometry x="513.5" y="740" width="120" height="30" as="geometry" />
        </mxCell>
        <mxCell id="IYe9hOyiI9uOS7aUslrK-19" value="Src: 10.0.0.20" style="text;html=1;strokeColor=none;fillColor=none;align=center;verticalAlign=middle;whiteSpace=wrap;rounded=0;" parent="1" vertex="1">
          <mxGeometry x="506.5" y="760" width="120" height="30" as="geometry" />
        </mxCell>
        <mxCell id="IYe9hOyiI9uOS7aUslrK-20" value="IP: 10.0.0.20" style="text;html=1;strokeColor=none;fillColor=none;align=center;verticalAlign=middle;whiteSpace=wrap;rounded=0;" parent="1" vertex="1">
          <mxGeometry x="500" y="860" width="120" height="30" as="geometry" />
        </mxCell>
        <mxCell id="IYe9hOyiI9uOS7aUslrK-21" value="IP: 10.0.0.10" style="text;html=1;strokeColor=none;fillColor=none;align=center;verticalAlign=middle;whiteSpace=wrap;rounded=0;" parent="1" vertex="1">
          <mxGeometry x="270" y="860" width="120" height="30" as="geometry" />
        </mxCell>
        <mxCell id="IYe9hOyiI9uOS7aUslrK-22" value="" style="endArrow=classic;html=1;rounded=0;exitX=0.5;exitY=1;exitDx=0;exitDy=0;entryX=0.25;entryY=0;entryDx=0;entryDy=0;" parent="1" source="IYe9hOyiI9uOS7aUslrK-14" target="IYe9hOyiI9uOS7aUslrK-13" edge="1">
          <mxGeometry width="50" height="50" relative="1" as="geometry">
            <mxPoint x="400" y="820" as="sourcePoint" />
            <mxPoint x="450" y="770" as="targetPoint" />
          </mxGeometry>
        </mxCell>
        <mxCell id="IYe9hOyiI9uOS7aUslrK-23" value="" style="endArrow=classic;html=1;rounded=0;entryX=0.75;entryY=1;entryDx=0;entryDy=0;exitX=0.75;exitY=0;exitDx=0;exitDy=0;" parent="1" source="IYe9hOyiI9uOS7aUslrK-14" target="IYe9hOyiI9uOS7aUslrK-8" edge="1">
          <mxGeometry width="50" height="50" relative="1" as="geometry">
            <mxPoint x="460" y="630" as="sourcePoint" />
            <mxPoint x="510" y="580" as="targetPoint" />
          </mxGeometry>
        </mxCell>
        <mxCell id="IYe9hOyiI9uOS7aUslrK-24" value="" style="endArrow=classic;html=1;rounded=0;entryX=0.5;entryY=0;entryDx=0;entryDy=0;exitX=0.5;exitY=1;exitDx=0;exitDy=0;" parent="1" source="IYe9hOyiI9uOS7aUslrK-8" target="IYe9hOyiI9uOS7aUslrK-14" edge="1">
          <mxGeometry width="50" height="50" relative="1" as="geometry">
            <mxPoint x="400" y="640" as="sourcePoint" />
            <mxPoint x="450" y="590" as="targetPoint" />
          </mxGeometry>
        </mxCell>
        <mxCell id="IYe9hOyiI9uOS7aUslrK-25" value="Src: 10.0.0.20" style="text;html=1;strokeColor=none;fillColor=none;align=center;verticalAlign=middle;whiteSpace=wrap;rounded=0;" parent="1" vertex="1">
          <mxGeometry x="496.5" y="600" width="120" height="30" as="geometry" />
        </mxCell>
        <mxCell id="IYe9hOyiI9uOS7aUslrK-26" value="Dest: 50.60.4.10" style="text;html=1;strokeColor=none;fillColor=none;align=center;verticalAlign=middle;whiteSpace=wrap;rounded=0;" parent="1" vertex="1">
          <mxGeometry x="503.5" y="580" width="120" height="30" as="geometry" />
        </mxCell>
        <mxCell id="IYe9hOyiI9uOS7aUslrK-27" value="" style="endArrow=classic;html=1;rounded=0;entryX=0.65;entryY=0.983;entryDx=0;entryDy=0;entryPerimeter=0;exitX=0.75;exitY=0;exitDx=0;exitDy=0;" parent="1" source="IYe9hOyiI9uOS7aUslrK-8" target="IYe9hOyiI9uOS7aUslrK-7" edge="1">
          <mxGeometry width="50" height="50" relative="1" as="geometry">
            <mxPoint x="550" y="360" as="sourcePoint" />
            <mxPoint x="600" y="310" as="targetPoint" />
          </mxGeometry>
        </mxCell>
        <mxCell id="IYe9hOyiI9uOS7aUslrK-28" value="Dest: 50.60.4.10" style="text;html=1;strokeColor=none;fillColor=none;align=center;verticalAlign=middle;whiteSpace=wrap;rounded=0;" parent="1" vertex="1">
          <mxGeometry x="530" y="160" width="120" height="30" as="geometry" />
        </mxCell>
        <mxCell id="IYe9hOyiI9uOS7aUslrK-29" value="Src: 12.34.56.78" style="text;html=1;strokeColor=none;fillColor=none;align=center;verticalAlign=middle;whiteSpace=wrap;rounded=0;" parent="1" vertex="1">
          <mxGeometry x="530" y="180" width="120" height="30" as="geometry" />
        </mxCell>
        <mxCell id="IYe9hOyiI9uOS7aUslrK-30" value="" style="endArrow=classic;html=1;rounded=0;exitX=0.5;exitY=1;exitDx=0;exitDy=0;entryX=0.5;entryY=0;entryDx=0;entryDy=0;" parent="1" source="IYe9hOyiI9uOS7aUslrK-7" target="IYe9hOyiI9uOS7aUslrK-8" edge="1">
          <mxGeometry width="50" height="50" relative="1" as="geometry">
            <mxPoint x="540" y="270" as="sourcePoint" />
            <mxPoint x="590" y="220" as="targetPoint" />
          </mxGeometry>
        </mxCell>
        <mxCell id="IYe9hOyiI9uOS7aUslrK-31" value="Dest: 12.34.56.78" style="text;html=1;strokeColor=none;fillColor=none;align=center;verticalAlign=middle;whiteSpace=wrap;rounded=0;" parent="1" vertex="1">
          <mxGeometry x="396.5" y="160" width="120" height="30" as="geometry" />
        </mxCell>
        <mxCell id="IYe9hOyiI9uOS7aUslrK-32" value="Src: 50.60.4.10" style="text;html=1;strokeColor=none;fillColor=none;align=center;verticalAlign=middle;whiteSpace=wrap;rounded=0;" parent="1" vertex="1">
          <mxGeometry x="396.5" y="180" width="120" height="30" as="geometry" />
        </mxCell>
        <mxCell id="IYe9hOyiI9uOS7aUslrK-33" value="Dest: 50.60.4.10" style="text;html=1;strokeColor=none;fillColor=none;align=center;verticalAlign=middle;whiteSpace=wrap;rounded=0;" parent="1" vertex="1">
          <mxGeometry x="347" y="580" width="120" height="30" as="geometry" />
        </mxCell>
        <mxCell id="IYe9hOyiI9uOS7aUslrK-34" value="Src: 10.0.0.20" style="text;html=1;strokeColor=none;fillColor=none;align=center;verticalAlign=middle;whiteSpace=wrap;rounded=0;" parent="1" vertex="1">
          <mxGeometry x="340" y="600" width="120" height="30" as="geometry" />
        </mxCell>
        <mxCell id="IYe9hOyiI9uOS7aUslrK-38" value="Dest: 50.60.4.10" style="text;html=1;strokeColor=none;fillColor=none;align=center;verticalAlign=middle;whiteSpace=wrap;rounded=0;" parent="1" vertex="1">
          <mxGeometry x="383.5" y="760" width="120" height="30" as="geometry" />
        </mxCell>
        <mxCell id="IYe9hOyiI9uOS7aUslrK-39" value="Src: 10.0.0.20" style="text;html=1;strokeColor=none;fillColor=none;align=center;verticalAlign=middle;whiteSpace=wrap;rounded=0;" parent="1" vertex="1">
          <mxGeometry x="376.5" y="780" width="120" height="30" as="geometry" />
        </mxCell>
        <mxCell id="JJxsekDJLD-W7M-YxXZ1-1" value="Route Table&amp;nbsp;" style="rounded=0;whiteSpace=wrap;html=1;" parent="1" vertex="1">
          <mxGeometry x="350" y="400" width="100" height="45" as="geometry" />
        </mxCell>
        <mxCell id="JJxsekDJLD-W7M-YxXZ1-2" value="Internet Gateway" style="ellipse;whiteSpace=wrap;html=1;aspect=fixed;" parent="1" vertex="1">
          <mxGeometry x="480" y="220" width="80" height="80" as="geometry" />
        </mxCell>
        <mxCell id="JJxsekDJLD-W7M-YxXZ1-3" value="Router" style="ellipse;whiteSpace=wrap;html=1;aspect=fixed;" parent="1" vertex="1">
          <mxGeometry x="480" y="320" width="80" height="80" as="geometry" />
        </mxCell>
        <mxCell id="JJxsekDJLD-W7M-YxXZ1-4" value="" style="rounded=0;whiteSpace=wrap;html=1;" parent="1" vertex="1">
          <mxGeometry x="110" y="1190" width="1100" height="620" as="geometry" />
        </mxCell>
        <mxCell id="JJxsekDJLD-W7M-YxXZ1-5" value="Internet" style="rounded=0;whiteSpace=wrap;html=1;" parent="1" vertex="1">
          <mxGeometry x="-40" y="1230" width="120" height="60" as="geometry" />
        </mxCell>
        <mxCell id="JJxsekDJLD-W7M-YxXZ1-6" value="Region" style="text;html=1;strokeColor=none;fillColor=none;align=center;verticalAlign=middle;whiteSpace=wrap;rounded=0;" parent="1" vertex="1">
          <mxGeometry x="190" y="1160" width="60" height="30" as="geometry" />
        </mxCell>
        <mxCell id="JJxsekDJLD-W7M-YxXZ1-7" value="" style="rounded=0;whiteSpace=wrap;html=1;" parent="1" vertex="1">
          <mxGeometry x="210" y="1250" width="910" height="490" as="geometry" />
        </mxCell>
        <mxCell id="JJxsekDJLD-W7M-YxXZ1-8" value="VPC" style="text;html=1;strokeColor=none;fillColor=none;align=center;verticalAlign=middle;whiteSpace=wrap;rounded=0;" parent="1" vertex="1">
          <mxGeometry x="210" y="1220" width="60" height="30" as="geometry" />
        </mxCell>
        <mxCell id="JJxsekDJLD-W7M-YxXZ1-9" value="" style="rounded=0;whiteSpace=wrap;html=1;" parent="1" vertex="1">
          <mxGeometry x="400" y="1340" width="250" height="340" as="geometry" />
        </mxCell>
        <mxCell id="JJxsekDJLD-W7M-YxXZ1-10" value="" style="rounded=0;whiteSpace=wrap;html=1;" parent="1" vertex="1">
          <mxGeometry x="750" y="1340" width="250" height="340" as="geometry" />
        </mxCell>
        <mxCell id="JJxsekDJLD-W7M-YxXZ1-11" value="Public Subnet" style="text;html=1;strokeColor=none;fillColor=none;align=center;verticalAlign=middle;whiteSpace=wrap;rounded=0;" parent="1" vertex="1">
          <mxGeometry x="397" y="1310" width="103" height="30" as="geometry" />
        </mxCell>
        <mxCell id="JJxsekDJLD-W7M-YxXZ1-12" value="Private Subnet" style="text;html=1;strokeColor=none;fillColor=none;align=center;verticalAlign=middle;whiteSpace=wrap;rounded=0;" parent="1" vertex="1">
          <mxGeometry x="760" y="1310" width="103" height="30" as="geometry" />
        </mxCell>
        <mxCell id="JJxsekDJLD-W7M-YxXZ1-13" value="" style="rounded=0;whiteSpace=wrap;html=1;" parent="1" vertex="1">
          <mxGeometry x="780" y="1370" width="200" height="120" as="geometry" />
        </mxCell>
        <mxCell id="JJxsekDJLD-W7M-YxXZ1-14" value="" style="rounded=0;whiteSpace=wrap;html=1;" parent="1" vertex="1">
          <mxGeometry x="425" y="1520" width="195" height="130" as="geometry" />
        </mxCell>
        <mxCell id="JJxsekDJLD-W7M-YxXZ1-15" value="Private EC2 Instance" style="rounded=1;whiteSpace=wrap;html=1;" parent="1" vertex="1">
          <mxGeometry x="820" y="1400" width="120" height="60" as="geometry" />
        </mxCell>
        <mxCell id="JJxsekDJLD-W7M-YxXZ1-16" value="Public EC2 Instance" style="rounded=1;whiteSpace=wrap;html=1;" parent="1" vertex="1">
          <mxGeometry x="460" y="1555" width="120" height="60" as="geometry" />
        </mxCell>
        <mxCell id="JJxsekDJLD-W7M-YxXZ1-17" value="Route Table" style="rounded=0;whiteSpace=wrap;html=1;" parent="1" vertex="1">
          <mxGeometry x="340" y="1447" width="83" height="50" as="geometry" />
        </mxCell>
        <mxCell id="JJxsekDJLD-W7M-YxXZ1-18" value="Route Table" style="rounded=0;whiteSpace=wrap;html=1;" parent="1" vertex="1">
          <mxGeometry x="678.5" y="1457" width="83" height="50" as="geometry" />
        </mxCell>
        <mxCell id="JJxsekDJLD-W7M-YxXZ1-19" value="NAT Gateway" style="ellipse;whiteSpace=wrap;html=1;aspect=fixed;" parent="1" vertex="1">
          <mxGeometry x="490" y="1370" width="90" height="90" as="geometry" />
        </mxCell>
        <mxCell id="JJxsekDJLD-W7M-YxXZ1-20" value="Security Group" style="text;html=1;strokeColor=none;fillColor=none;align=center;verticalAlign=middle;whiteSpace=wrap;rounded=0;" parent="1" vertex="1">
          <mxGeometry x="770" y="1346" width="110" height="30" as="geometry" />
        </mxCell>
        <mxCell id="JJxsekDJLD-W7M-YxXZ1-21" value="Security Group" style="text;html=1;strokeColor=none;fillColor=none;align=center;verticalAlign=middle;whiteSpace=wrap;rounded=0;" parent="1" vertex="1">
          <mxGeometry x="420" y="1495" width="110" height="30" as="geometry" />
        </mxCell>
        <mxCell id="JJxsekDJLD-W7M-YxXZ1-22" value="" style="endArrow=classic;html=1;rounded=0;entryX=1;entryY=0.5;entryDx=0;entryDy=0;exitX=0;exitY=0.25;exitDx=0;exitDy=0;" parent="1" source="JJxsekDJLD-W7M-YxXZ1-15" target="JJxsekDJLD-W7M-YxXZ1-19" edge="1">
          <mxGeometry width="50" height="50" relative="1" as="geometry">
            <mxPoint x="690" y="1340" as="sourcePoint" />
            <mxPoint x="740" y="1290" as="targetPoint" />
          </mxGeometry>
        </mxCell>
        <mxCell id="JJxsekDJLD-W7M-YxXZ1-23" value="Router" style="ellipse;whiteSpace=wrap;html=1;aspect=fixed;" parent="1" vertex="1">
          <mxGeometry x="303.5" y="1296" width="80" height="80" as="geometry" />
        </mxCell>
        <mxCell id="JJxsekDJLD-W7M-YxXZ1-24" value="" style="endArrow=classic;html=1;rounded=0;entryX=1;entryY=0.5;entryDx=0;entryDy=0;exitX=0;exitY=0.5;exitDx=0;exitDy=0;" parent="1" source="JJxsekDJLD-W7M-YxXZ1-19" target="JJxsekDJLD-W7M-YxXZ1-23" edge="1">
          <mxGeometry width="50" height="50" relative="1" as="geometry">
            <mxPoint x="470" y="1180" as="sourcePoint" />
            <mxPoint x="520" y="1130" as="targetPoint" />
          </mxGeometry>
        </mxCell>
        <mxCell id="JJxsekDJLD-W7M-YxXZ1-28" style="edgeStyle=orthogonalEdgeStyle;rounded=0;orthogonalLoop=1;jettySize=auto;html=1;entryX=0.5;entryY=1;entryDx=0;entryDy=0;" parent="1" source="JJxsekDJLD-W7M-YxXZ1-25" target="JJxsekDJLD-W7M-YxXZ1-5" edge="1">
          <mxGeometry relative="1" as="geometry" />
        </mxCell>
        <mxCell id="JJxsekDJLD-W7M-YxXZ1-25" value="Internet Gateway" style="ellipse;whiteSpace=wrap;html=1;aspect=fixed;" parent="1" vertex="1">
          <mxGeometry x="170" y="1296" width="80" height="80" as="geometry" />
        </mxCell>
        <mxCell id="JJxsekDJLD-W7M-YxXZ1-27" value="" style="shape=flexArrow;endArrow=classic;startArrow=classic;html=1;rounded=0;entryX=0;entryY=0.5;entryDx=0;entryDy=0;exitX=1;exitY=0.5;exitDx=0;exitDy=0;" parent="1" source="JJxsekDJLD-W7M-YxXZ1-25" target="JJxsekDJLD-W7M-YxXZ1-23" edge="1">
          <mxGeometry width="100" height="100" relative="1" as="geometry">
            <mxPoint x="200" y="1490" as="sourcePoint" />
            <mxPoint x="300" y="1390" as="targetPoint" />
          </mxGeometry>
        </mxCell>
        <mxCell id="Jqd81Fj2wLlkBFGxSpRS-1" value="" style="rounded=0;whiteSpace=wrap;html=1;" vertex="1" parent="1">
          <mxGeometry x="-80" y="1980" width="390" height="440" as="geometry" />
        </mxCell>
        <mxCell id="Jqd81Fj2wLlkBFGxSpRS-2" value="subnet" style="text;html=1;strokeColor=none;fillColor=none;align=center;verticalAlign=middle;whiteSpace=wrap;rounded=0;" vertex="1" parent="1">
          <mxGeometry x="-70" y="1980" width="60" height="30" as="geometry" />
        </mxCell>
        <mxCell id="Jqd81Fj2wLlkBFGxSpRS-3" value="" style="rounded=0;whiteSpace=wrap;html=1;" vertex="1" parent="1">
          <mxGeometry x="80" y="2090" width="200" height="230" as="geometry" />
        </mxCell>
        <mxCell id="Jqd81Fj2wLlkBFGxSpRS-4" value="Incoming Request" style="text;html=1;strokeColor=none;fillColor=none;align=center;verticalAlign=middle;whiteSpace=wrap;rounded=0;" vertex="1" parent="1">
          <mxGeometry x="20" y="1940" width="150" height="30" as="geometry" />
        </mxCell>
        <mxCell id="Jqd81Fj2wLlkBFGxSpRS-5" value="NACL" style="rounded=0;whiteSpace=wrap;html=1;" vertex="1" parent="1">
          <mxGeometry x="-160" y="1980" width="70" height="440" as="geometry" />
        </mxCell>
        <mxCell id="Jqd81Fj2wLlkBFGxSpRS-6" value="EC2 Instance" style="rounded=0;whiteSpace=wrap;html=1;" vertex="1" parent="1">
          <mxGeometry x="130" y="2200" width="120" height="60" as="geometry" />
        </mxCell>
        <mxCell id="Jqd81Fj2wLlkBFGxSpRS-7" value="Security Group" style="text;html=1;strokeColor=none;fillColor=none;align=center;verticalAlign=middle;whiteSpace=wrap;rounded=0;" vertex="1" parent="1">
          <mxGeometry x="90" y="2100" width="60" height="30" as="geometry" />
        </mxCell>
        <mxCell id="Jqd81Fj2wLlkBFGxSpRS-8" value="SG Inbound Rules (Stateful)" style="text;html=1;strokeColor=none;fillColor=none;align=center;verticalAlign=middle;whiteSpace=wrap;rounded=0;" vertex="1" parent="1">
          <mxGeometry x="-10" y="2100" width="80" height="30" as="geometry" />
        </mxCell>
        <mxCell id="Jqd81Fj2wLlkBFGxSpRS-9" value="SG Outbound Rules (Statefule)" style="text;html=1;strokeColor=none;fillColor=none;align=center;verticalAlign=middle;whiteSpace=wrap;rounded=0;" vertex="1" parent="1">
          <mxGeometry x="-10" y="2260" width="80" height="30" as="geometry" />
        </mxCell>
        <mxCell id="Jqd81Fj2wLlkBFGxSpRS-10" value="NACL Inbound Rules (Stateless)" style="text;html=1;strokeColor=none;fillColor=none;align=center;verticalAlign=middle;whiteSpace=wrap;rounded=0;" vertex="1" parent="1">
          <mxGeometry x="-260" y="2100" width="80" height="30" as="geometry" />
        </mxCell>
        <mxCell id="Jqd81Fj2wLlkBFGxSpRS-11" value="NACL Outbound Rules (Stateless)" style="text;html=1;strokeColor=none;fillColor=none;align=center;verticalAlign=middle;whiteSpace=wrap;rounded=0;" vertex="1" parent="1">
          <mxGeometry x="-280" y="2260" width="90" height="30" as="geometry" />
        </mxCell>
        <mxCell id="Jqd81Fj2wLlkBFGxSpRS-12" value="" style="endArrow=classic;html=1;rounded=0;" edge="1" parent="1">
          <mxGeometry width="50" height="50" relative="1" as="geometry">
            <mxPoint x="-300" y="2114.5" as="sourcePoint" />
            <mxPoint x="-270" y="2114.5" as="targetPoint" />
          </mxGeometry>
        </mxCell>
        <mxCell id="Jqd81Fj2wLlkBFGxSpRS-14" value="" style="endArrow=classic;html=1;rounded=0;" edge="1" parent="1">
          <mxGeometry width="50" height="50" relative="1" as="geometry">
            <mxPoint x="-55" y="2114.5" as="sourcePoint" />
            <mxPoint x="-25" y="2114.5" as="targetPoint" />
          </mxGeometry>
        </mxCell>
        <mxCell id="Jqd81Fj2wLlkBFGxSpRS-15" value="" style="endArrow=classic;html=1;rounded=0;" edge="1" parent="1">
          <mxGeometry width="50" height="50" relative="1" as="geometry">
            <mxPoint x="-30" y="2270" as="sourcePoint" />
            <mxPoint x="-180" y="2270" as="targetPoint" />
          </mxGeometry>
        </mxCell>
        <mxCell id="Jqd81Fj2wLlkBFGxSpRS-16" value="" style="rounded=0;whiteSpace=wrap;html=1;" vertex="1" parent="1">
          <mxGeometry x="590" y="1980" width="390" height="440" as="geometry" />
        </mxCell>
        <mxCell id="Jqd81Fj2wLlkBFGxSpRS-17" value="subnet" style="text;html=1;strokeColor=none;fillColor=none;align=center;verticalAlign=middle;whiteSpace=wrap;rounded=0;" vertex="1" parent="1">
          <mxGeometry x="600" y="1980" width="60" height="30" as="geometry" />
        </mxCell>
        <mxCell id="Jqd81Fj2wLlkBFGxSpRS-18" value="" style="rounded=0;whiteSpace=wrap;html=1;" vertex="1" parent="1">
          <mxGeometry x="750" y="2090" width="200" height="230" as="geometry" />
        </mxCell>
        <mxCell id="Jqd81Fj2wLlkBFGxSpRS-19" value="Outgoing Request" style="text;html=1;strokeColor=none;fillColor=none;align=center;verticalAlign=middle;whiteSpace=wrap;rounded=0;" vertex="1" parent="1">
          <mxGeometry x="690" y="1940" width="150" height="30" as="geometry" />
        </mxCell>
        <mxCell id="Jqd81Fj2wLlkBFGxSpRS-20" value="NACL" style="rounded=0;whiteSpace=wrap;html=1;" vertex="1" parent="1">
          <mxGeometry x="510" y="1980" width="70" height="440" as="geometry" />
        </mxCell>
        <mxCell id="Jqd81Fj2wLlkBFGxSpRS-21" value="EC2 Instance" style="rounded=0;whiteSpace=wrap;html=1;" vertex="1" parent="1">
          <mxGeometry x="800" y="2200" width="120" height="60" as="geometry" />
        </mxCell>
        <mxCell id="Jqd81Fj2wLlkBFGxSpRS-22" value="Security Group" style="text;html=1;strokeColor=none;fillColor=none;align=center;verticalAlign=middle;whiteSpace=wrap;rounded=0;" vertex="1" parent="1">
          <mxGeometry x="760" y="2100" width="60" height="30" as="geometry" />
        </mxCell>
        <mxCell id="Jqd81Fj2wLlkBFGxSpRS-23" value="SG Inbound Rules (Stateful)" style="text;html=1;strokeColor=none;fillColor=none;align=center;verticalAlign=middle;whiteSpace=wrap;rounded=0;" vertex="1" parent="1">
          <mxGeometry x="660" y="2100" width="80" height="30" as="geometry" />
        </mxCell>
        <mxCell id="Jqd81Fj2wLlkBFGxSpRS-24" value="SG Outbound Rules (Statefule)" style="text;html=1;strokeColor=none;fillColor=none;align=center;verticalAlign=middle;whiteSpace=wrap;rounded=0;" vertex="1" parent="1">
          <mxGeometry x="660" y="2260" width="80" height="30" as="geometry" />
        </mxCell>
        <mxCell id="Jqd81Fj2wLlkBFGxSpRS-25" value="NACL Inbound Rules (Stateless)" style="text;html=1;strokeColor=none;fillColor=none;align=center;verticalAlign=middle;whiteSpace=wrap;rounded=0;" vertex="1" parent="1">
          <mxGeometry x="410" y="2100" width="80" height="30" as="geometry" />
        </mxCell>
        <mxCell id="Jqd81Fj2wLlkBFGxSpRS-26" value="NACL Outbound Rules (Stateless)" style="text;html=1;strokeColor=none;fillColor=none;align=center;verticalAlign=middle;whiteSpace=wrap;rounded=0;" vertex="1" parent="1">
          <mxGeometry x="390" y="2260" width="90" height="30" as="geometry" />
        </mxCell>
        <mxCell id="Jqd81Fj2wLlkBFGxSpRS-30" value="" style="endArrow=classic;html=1;rounded=0;entryX=1;entryY=0.75;entryDx=0;entryDy=0;" edge="1" parent="1" target="Jqd81Fj2wLlkBFGxSpRS-23">
          <mxGeometry width="50" height="50" relative="1" as="geometry">
            <mxPoint x="860" y="2120" as="sourcePoint" />
            <mxPoint x="910" y="2070" as="targetPoint" />
          </mxGeometry>
        </mxCell>
        <mxCell id="Jqd81Fj2wLlkBFGxSpRS-31" value="" style="endArrow=classic;html=1;rounded=0;entryX=1;entryY=0.5;entryDx=0;entryDy=0;" edge="1" parent="1" source="Jqd81Fj2wLlkBFGxSpRS-23" target="Jqd81Fj2wLlkBFGxSpRS-25">
          <mxGeometry width="50" height="50" relative="1" as="geometry">
            <mxPoint x="590" y="2160" as="sourcePoint" />
            <mxPoint x="640" y="2110" as="targetPoint" />
          </mxGeometry>
        </mxCell>
        <mxCell id="Jqd81Fj2wLlkBFGxSpRS-33" value="" style="endArrow=classic;html=1;rounded=0;" edge="1" parent="1">
          <mxGeometry width="50" height="50" relative="1" as="geometry">
            <mxPoint x="340" y="2270" as="sourcePoint" />
            <mxPoint x="380" y="2270" as="targetPoint" />
          </mxGeometry>
        </mxCell>
        <mxCell id="Jqd81Fj2wLlkBFGxSpRS-34" value="" style="endArrow=classic;html=1;rounded=0;exitX=0.003;exitY=0.641;exitDx=0;exitDy=0;exitPerimeter=0;" edge="1" parent="1" source="Jqd81Fj2wLlkBFGxSpRS-16">
          <mxGeometry width="50" height="50" relative="1" as="geometry">
            <mxPoint x="730" y="2310" as="sourcePoint" />
            <mxPoint x="780" y="2260" as="targetPoint" />
          </mxGeometry>
        </mxCell>
        <mxCell id="Jqd81Fj2wLlkBFGxSpRS-35" value="" style="rounded=0;whiteSpace=wrap;html=1;" vertex="1" parent="1">
          <mxGeometry x="-370" y="2750" width="320" height="380" as="geometry" />
        </mxCell>
        <mxCell id="Jqd81Fj2wLlkBFGxSpRS-36" value="" style="rounded=0;whiteSpace=wrap;html=1;" vertex="1" parent="1">
          <mxGeometry x="480" y="2750" width="320" height="380" as="geometry" />
        </mxCell>
        <mxCell id="Jqd81Fj2wLlkBFGxSpRS-37" value="Web Tier" style="text;html=1;strokeColor=none;fillColor=none;align=center;verticalAlign=middle;whiteSpace=wrap;rounded=0;" vertex="1" parent="1">
          <mxGeometry x="-350" y="2720" width="60" height="30" as="geometry" />
        </mxCell>
        <mxCell id="Jqd81Fj2wLlkBFGxSpRS-38" value="DatabaseTier" style="text;html=1;strokeColor=none;fillColor=none;align=center;verticalAlign=middle;whiteSpace=wrap;rounded=0;" vertex="1" parent="1">
          <mxGeometry x="503.5" y="2720" width="60" height="30" as="geometry" />
        </mxCell>
        <mxCell id="Jqd81Fj2wLlkBFGxSpRS-39" value="Web Subnet (Public)" style="text;html=1;strokeColor=none;fillColor=none;align=center;verticalAlign=middle;whiteSpace=wrap;rounded=0;" vertex="1" parent="1">
          <mxGeometry x="-370" y="2760" width="130" height="30" as="geometry" />
        </mxCell>
        <mxCell id="Jqd81Fj2wLlkBFGxSpRS-40" value="DB Subnet (Public)" style="text;html=1;strokeColor=none;fillColor=none;align=center;verticalAlign=middle;whiteSpace=wrap;rounded=0;" vertex="1" parent="1">
          <mxGeometry x="486.5" y="2760" width="130" height="30" as="geometry" />
        </mxCell>
        <mxCell id="Jqd81Fj2wLlkBFGxSpRS-42" value="WEB NACL" style="rounded=0;whiteSpace=wrap;html=1;" vertex="1" parent="1">
          <mxGeometry x="-40" y="2750" width="60" height="380" as="geometry" />
        </mxCell>
        <mxCell id="Jqd81Fj2wLlkBFGxSpRS-43" value="Database NACL" style="rounded=0;whiteSpace=wrap;html=1;" vertex="1" parent="1">
          <mxGeometry x="410" y="2750" width="60" height="380" as="geometry" />
        </mxCell>
        <mxCell id="Jqd81Fj2wLlkBFGxSpRS-45" value="Client Ephemeral Port" style="text;html=1;strokeColor=none;fillColor=none;align=center;verticalAlign=middle;whiteSpace=wrap;rounded=0;" vertex="1" parent="1">
          <mxGeometry x="-240" y="3030" width="60" height="30" as="geometry" />
        </mxCell>
        <mxCell id="Jqd81Fj2wLlkBFGxSpRS-46" value="" style="rounded=0;whiteSpace=wrap;html=1;" vertex="1" parent="1">
          <mxGeometry x="-270" y="2910" width="120" height="100" as="geometry" />
        </mxCell>
        <mxCell id="Jqd81Fj2wLlkBFGxSpRS-47" value="Amazon RDS" style="shape=cylinder3;whiteSpace=wrap;html=1;boundedLbl=1;backgroundOutline=1;size=15;" vertex="1" parent="1">
          <mxGeometry x="600" y="2890" width="60" height="80" as="geometry" />
        </mxCell>
        <mxCell id="Jqd81Fj2wLlkBFGxSpRS-48" value="DB Instance port 3306" style="text;html=1;strokeColor=none;fillColor=none;align=center;verticalAlign=middle;whiteSpace=wrap;rounded=0;" vertex="1" parent="1">
          <mxGeometry x="600" y="2980" width="60" height="30" as="geometry" />
        </mxCell>
        <mxCell id="Jqd81Fj2wLlkBFGxSpRS-49" value="Allow Outbound TCP on Port 3306 to DB Subnet CIDR" style="text;html=1;strokeColor=none;fillColor=none;align=center;verticalAlign=middle;whiteSpace=wrap;rounded=0;" vertex="1" parent="1">
          <mxGeometry x="30" y="2830" width="140" height="30" as="geometry" />
        </mxCell>
        <mxCell id="Jqd81Fj2wLlkBFGxSpRS-50" value="Allow Inbound TCP On port 3306 From Web Subnet CIDR" style="text;html=1;strokeColor=none;fillColor=none;align=center;verticalAlign=middle;whiteSpace=wrap;rounded=0;" vertex="1" parent="1">
          <mxGeometry x="257" y="2820" width="140" height="30" as="geometry" />
        </mxCell>
        <mxCell id="Jqd81Fj2wLlkBFGxSpRS-52" value="Allow Outbound TCP on Port 1024-65535 Web Subnet CIDR" style="text;html=1;strokeColor=none;fillColor=none;align=center;verticalAlign=middle;whiteSpace=wrap;rounded=0;" vertex="1" parent="1">
          <mxGeometry x="250" y="2960" width="140" height="30" as="geometry" />
        </mxCell>
        <mxCell id="Jqd81Fj2wLlkBFGxSpRS-53" value="Allow Inbound TCP on Port 1024-85535 from DB Subnet CIDR" style="text;html=1;strokeColor=none;fillColor=none;align=center;verticalAlign=middle;whiteSpace=wrap;rounded=0;" vertex="1" parent="1">
          <mxGeometry x="25" y="2960" width="140" height="30" as="geometry" />
        </mxCell>
        <mxCell id="Jqd81Fj2wLlkBFGxSpRS-56" value="" style="endArrow=classic;html=1;rounded=0;exitX=1;exitY=0;exitDx=0;exitDy=0;entryX=0;entryY=0;entryDx=0;entryDy=15;entryPerimeter=0;" edge="1" parent="1" source="Jqd81Fj2wLlkBFGxSpRS-46" target="Jqd81Fj2wLlkBFGxSpRS-47">
          <mxGeometry width="50" height="50" relative="1" as="geometry">
            <mxPoint x="-210" y="2900" as="sourcePoint" />
            <mxPoint x="630" y="2880" as="targetPoint" />
          </mxGeometry>
        </mxCell>
        <mxCell id="Jqd81Fj2wLlkBFGxSpRS-61" value="" style="endArrow=classic;html=1;rounded=0;entryX=1;entryY=1;entryDx=0;entryDy=0;exitX=0;exitY=1;exitDx=0;exitDy=0;" edge="1" parent="1" source="Jqd81Fj2wLlkBFGxSpRS-48" target="Jqd81Fj2wLlkBFGxSpRS-46">
          <mxGeometry width="50" height="50" relative="1" as="geometry">
            <mxPoint x="200" y="3140" as="sourcePoint" />
            <mxPoint x="250" y="3090" as="targetPoint" />
          </mxGeometry>
        </mxCell>
      </root>
    </mxGraphModel>
  </diagram>
</mxfile>
